<svg width="21" height="20" viewBox="0 0 21 20" fill="none" xmlns="http://www.w3.org/2000/svg">
<path d="M17.4272 14.08C16.5947 14.08 15.8498 14.38 15.2801 14.85L7.4695 10.7C7.52427 10.47 7.56809 10.24 7.56809 10C7.56809 9.76 7.52427 9.53 7.4695 9.3L15.1925 5.19C15.784 5.69 16.5618 6 17.4272 6C19.2457 6 20.7136 4.66 20.7136 3C20.7136 1.34 19.2457 0 17.4272 0C15.6088 0 14.1409 1.34 14.1409 3C14.1409 3.24 14.1847 3.47 14.2394 3.7L6.51645 7.81C5.9249 7.31 5.14712 7 4.28171 7C2.46325 7 0.995331 8.34 0.995331 10C0.995331 11.66 2.46325 13 4.28171 13C5.14712 13 5.9249 12.69 6.51645 12.19L14.3161 16.35C14.2614 16.56 14.2285 16.78 14.2285 17C14.2285 18.61 15.6635 19.92 17.4272 19.92C19.1909 19.92 20.626 18.61 20.626 17C20.626 15.39 19.1909 14.08 17.4272 14.08Z" fill="#356EAD"/>
</svg>
